<svg width="166" height="40" viewBox="0 0 166 40" fill="none" xmlns="http://www.w3.org/2000/svg">
<path fill-rule="evenodd" clip-rule="evenodd" d="M86.7289 29.9191H94.2149V31.664H88.5301V33.437H91.9635V35.1818H88.5301V37.5458H94.5526V39.2906H86.7008V29.9191H86.7289ZM105.556 31.664H103.333V37.5176H105.556C106.795 37.5176 107.92 37.0392 108.371 35.8291C108.652 35.1255 108.652 34.1124 108.371 33.3807C107.92 32.1705 106.795 31.664 105.556 31.664ZM105.556 29.9191C107.526 29.9191 109.327 30.8197 110.087 32.7334C110.538 33.8591 110.538 35.3507 110.087 36.4764C109.356 38.3619 107.526 39.2343 105.556 39.2343H101.504V29.9191H105.556ZM119.234 35.8291C119.234 37.5176 119.768 37.6865 121.316 37.6865C122.977 37.6865 123.399 37.4332 123.399 35.8291V29.891C124.018 29.891 124.609 29.891 125.228 29.891V36.1386C125.228 37.7709 124.637 38.8685 123.033 39.2906C122.048 39.5439 120.584 39.5439 119.599 39.2906C117.995 38.8966 117.404 37.7709 117.404 36.1386V29.9191C118.024 29.9191 118.615 29.9191 119.234 29.9191V35.8291Z" fill="#005496"/>
<path fill-rule="evenodd" clip-rule="evenodd" d="M5.59381 10.0505L14.7683 15.3413C17.864 17.1143 18.7927 17.1143 21.8884 15.3413L31.0629 10.0505C33.2298 8.81219 36.1567 9.26247 36.1567 12.921C36.1567 17.3675 36.1567 21.8141 36.1567 26.2887C36.1567 29.9754 33.2298 30.3976 31.0629 29.1593L21.8884 23.8685C18.7927 22.0955 17.864 22.0955 14.7683 23.8685L5.59381 29.1593C3.42683 30.3976 0.5 29.9473 0.5 26.2887C0.5 21.8422 0.5 17.3957 0.5 12.921C0.5 9.23433 3.42683 8.81219 5.59381 10.0505ZM14.0929 16.5233L4.91839 11.2325C4.43996 10.951 3.90525 10.8103 3.39869 10.8103C3.11726 10.8103 2.86398 10.8666 2.66698 10.951C2.46998 11.0355 2.32927 11.2043 2.18856 11.4295C1.99156 11.7672 1.87899 12.2456 1.87899 12.921V26.2887C1.87899 26.9642 1.99156 27.4426 2.18856 27.7803C2.32927 28.0054 2.46998 28.1462 2.66698 28.2587C2.86398 28.3713 3.11726 28.3994 3.39869 28.3994C3.87711 28.3994 4.41182 28.2587 4.91839 27.9773L14.0929 22.6865C15.8659 21.6734 17.0478 21.1668 18.3424 21.1668C19.6651 21.1668 20.8189 21.6734 22.5919 22.6865L31.7664 27.9773C32.2448 28.2587 32.7795 28.3994 33.2861 28.3994C33.5675 28.3994 33.8208 28.3431 34.0178 28.2587C34.2148 28.1743 34.3555 28.0054 34.4962 27.7803C34.6932 27.4426 34.8058 26.9642 34.8058 26.2887V12.921C34.8058 12.2456 34.6932 11.7672 34.4962 11.4295C34.3555 11.2043 34.2148 11.0636 34.0178 10.951C33.8208 10.8385 33.5675 10.8103 33.2861 10.8103C32.8077 10.8103 32.273 10.951 31.7664 11.2325L22.5919 16.5233C20.8189 17.5364 19.637 18.043 18.3424 18.043C17.0478 18.043 15.8659 17.5364 14.0929 16.5233Z" fill="#005496"/>
<path fill-rule="evenodd" clip-rule="evenodd" d="M33.9615 31.1011C33.7926 31.2137 33.6519 31.3262 33.483 31.4107C31.4286 32.5927 29.3742 33.7746 27.2917 34.9566C25.2373 36.1386 23.1829 37.3206 21.1003 38.5026C19.468 39.4313 17.2729 39.4595 15.6125 38.5026C13.5581 37.3206 11.5037 36.1386 9.42114 34.9566C7.36673 33.7746 5.31232 32.5927 3.22977 31.4107C3.06091 31.3262 2.89206 31.2137 2.75134 31.1011C2.97648 31.1292 3.17348 31.1574 3.39862 31.1574C4.35547 31.1574 5.3686 30.876 6.26917 30.3694L15.4437 25.0786C16.7945 24.3187 17.6106 23.9247 18.3142 23.9247C19.0178 23.9247 19.8339 24.3187 21.1847 25.0786L30.3592 30.3694C31.2598 30.876 32.2729 31.1574 33.2298 31.1574C33.5112 31.1574 33.7363 31.1292 33.9615 31.1011Z" fill="#005496"/>
<path fill-rule="evenodd" clip-rule="evenodd" d="M33.9615 8.10862C33.7926 7.99605 33.6519 7.88348 33.483 7.79905C31.4286 6.61706 29.3742 5.43508 27.2917 4.25309C25.2373 3.0711 23.1829 1.88911 21.1003 0.707122C19.468 -0.221583 17.2729 -0.249726 15.6125 0.707122C13.5581 1.88911 11.5037 3.0711 9.42114 4.25309C7.36673 5.43508 5.31232 6.61706 3.22977 7.79905C3.06091 7.88348 2.89206 7.99605 2.75134 8.10862C2.97648 8.08048 3.17348 8.05234 3.39862 8.05234C4.35547 8.05234 5.3686 8.33376 6.26917 8.84033L15.4437 14.1311C16.7945 14.891 17.6106 15.285 18.3142 15.285C19.0178 15.285 19.8339 14.891 21.1847 14.1311L30.3592 8.84033C31.2598 8.33376 32.2729 8.05234 33.2298 8.05234C33.5112 8.05234 33.7363 8.08048 33.9615 8.10862Z" fill="#005496"/>
<path d="M101.082 23.0242H98.5206L104.346 11.1199H106.091L112.001 23.0242H109.412C108.962 22.0955 108.596 21.3919 108.286 20.7728H102.207C101.87 21.3919 101.532 22.1236 101.082 23.0242ZM157.564 17.255L152.02 11.1199H155.087L158.774 15.1724L162.432 11.1199H165.5L159.928 17.2831V23.0242H157.564V17.255ZM138.708 23.0242H136.147L141.973 11.1199H143.718L149.628 23.0242H147.038C146.588 22.0955 146.222 21.3919 145.913 20.7728H139.806C139.496 21.3919 139.13 22.1236 138.708 23.0242ZM144.759 18.4932C144.28 17.5364 143.83 16.6077 142.845 14.6096C141.917 16.4951 141.41 17.4801 140.932 18.4932H144.759ZM115.941 11.1199H118.333L120.669 18.4088L123.061 11.1199H125.003L127.395 18.3807L129.731 11.1199H132.095L128.211 23.0242H126.494L123.99 15.3694L121.513 23.0242H119.825L115.941 11.1199ZM46.485 11.1199H48.5113L52.6482 17.3675L56.8133 11.1199H58.8114V23.0242H56.4756V15.679L52.6482 21.3638L48.8208 15.679V23.0242H46.485V11.1199ZM66.2129 11.1199H76.2317C76.2317 11.8797 76.2317 12.6396 76.2317 13.3713H68.5769V15.5664H73.9522C73.9522 16.3262 73.9522 17.0861 73.9522 17.8178H68.5488V20.7446H76.2036C76.2036 21.5045 76.2036 22.2643 76.2036 22.996H66.1848L66.2129 11.1199ZM86.9259 13.3713H82.3386C82.3386 12.6114 82.3386 11.8516 82.3386 11.1199H93.8771C93.8771 11.8797 93.8771 12.6396 93.8771 13.3713H89.2899V22.996C88.5019 22.996 87.7139 22.996 86.9259 22.996V13.3713ZM107.132 18.4932C106.654 17.5364 106.204 16.6077 105.219 14.6096C104.29 16.4951 103.783 17.4801 103.305 18.4932H107.132Z" fill="#005496"/>
</svg>
